<?xml version="1.0" standalone="no"?>
<!DOCTYPE svg PUBLIC "-//W3C//DTD SVG 20010904//EN"
 "http://www.w3.org/TR/2001/REC-SVG-20010904/DTD/svg10.dtd">
<svg version="1.0" xmlns="http://www.w3.org/2000/svg"
 width="500.000000pt" height="500.000000pt" viewBox="0 0 500.000000 500.000000"
 preserveAspectRatio="xMidYMid meet">

<g transform="translate(0.000000,500.000000) scale(0.100000,-0.100000)"
fill="#000000" stroke="none">
<path d="M2275 4864 c-423 -59 -734 -163 -1022 -344 -576 -363 -971 -941
-1088 -1595 -32 -178 -35 -213 -35 -427 0 -217 3 -253 50 -498 28 -146 97
-347 178 -520 365 -773 1152 -1304 2002 -1350 239 -12 537 15 710 65 25 7 61
16 80 20 19 4 64 19 100 32 36 14 94 36 130 50 143 55 288 132 445 237 108 72
90 59 200 149 128 105 355 347 355 377 0 6 4 10 9 10 7 0 88 117 163 236 82
129 184 373 234 554 57 210 103 571 89 711 -3 30 -7 88 -9 130 -5 79 -51 344
-67 387 -5 13 -14 45 -20 71 -13 62 -82 244 -135 358 -35 77 -104 199 -167
297 -57 91 -198 259 -306 367 -374 373 -807 588 -1351 671 -73 11 -485 20
-545 12z m1659 -1342 c-6 -4 -72 -63 -145 -132 -74 -69 -165 -154 -204 -190
-38 -36 -119 -110 -180 -165 -60 -55 -141 -129 -180 -166 -38 -36 -106 -99
-150 -139 -44 -41 -193 -179 -332 -307 -259 -240 -285 -259 -333 -233 -27 14
-1350 1330 -1350 1342 0 10 2862 16 2875 5 6 -5 6 -10 -1 -15z m126 -1018 c0
-599 -3 -924 -10 -922 -5 2 -91 89 -191 193 -100 105 -286 297 -413 428 -265
274 -336 349 -336 358 0 4 28 32 63 64 34 31 96 89 137 128 105 100 245 230
391 362 145 132 260 236 299 273 25 23 48 42 53 42 4 0 7 -417 7 -926z m-3015
830 c237 -226 785 -780 785 -794 0 -9 -26 -43 -59 -76 -32 -32 -84 -88 -116
-124 -80 -89 -253 -277 -351 -380 -44 -47 -103 -110 -130 -140 -27 -30 -72
-80 -100 -110 -28 -30 -67 -73 -86 -94 -19 -22 -39 -37 -44 -34 -11 7 -7 1838
4 1838 4 0 48 -39 97 -86z m1967 -888 c7 -7 90 -92 183 -187 303 -310 748
-776 753 -789 7 -19 -2875 -26 -2895 -7 -9 10 8 31 287 332 36 39 106 115 155
169 50 55 136 147 191 205 56 58 134 141 174 184 40 42 79 77 87 77 8 0 81
-66 161 -148 216 -217 253 -243 338 -244 56 0 107 24 173 80 58 49 66 57 176
162 57 55 196 179 202 180 1 0 8 -6 15 -14z"/>
</g>
</svg>
